PathFileType	4	(x/y/z)	Passive_Pref0006.trc
DataRate	CameraRate	NumFrames	NumMarkers	Units	OrigDataRate	OrigDataStartFrame	OrigNumFrames
240	240	10	50	mm	240	38	300
Frame#	Time	R_AC			L_AC			HEAD			STERN			C7			L_IC			R_IC			L_ASIS			R_ASIS			L_GT			R_GT			R_PSIS			L_PSIS			SACRAL			L_LAT_KNEE			L_MED_KNEE			R_LAT_KNEE			R_MED_KNEE			L_LAT_ANK			L_MED_ANK			R_LAT_ANK			R_MED_ANK			L_THIGH_PROX_POST			L_THIGH_PROX_ANT			L_THIGH_DIST_ANT			L_THIGH_DIST_POST			R_THIGH_PROX_POST			R_THIGH_PROX_ANT			R_THIGH_DIST_ANT			R_THIGH_DIST_POST			L_SHANK_PROX_POST			L_SHANK_PROX_ANT			L_SHANK_DIST_ANT			L_SHANK_DIST_POST			R_SHANK_PROX_POST			R_SHANK_PROX_ANT			R_SHANK_DIST_ANT			R_SHANK_DIST_POST			L_HEEL_LAT			L_HEEL_SUP			L_HEEL_MED			R_HEEL_LAT			R_HEEL_SUP			R_HEEL_MED			L_1ST_MET			L_5TH_MET			L_TOE			R_1ST_MET			R_5TH_MET			R_TOE			
		X1	Y1	Z1	X2	Y2	Z2	X3	Y3	Z3	X4	Y4	Z4	X5	Y5	Z5	X6	Y6	Z6	X7	Y7	Z7	X8	Y8	Z8	X9	Y9	Z9	X10	Y10	Z10	X11	Y11	Z11	X12	Y12	Z12	X13	Y13	Z13	X14	Y14	Z14	X15	Y15	Z15	X16	Y16	Z16	X17	Y17	Z17	X18	Y18	Z18	X19	Y19	Z19	X20	Y20	Z20	X21	Y21	Z21	X22	Y22	Z22	X23	Y23	Z23	X24	Y24	Z24	X25	Y25	Z25	X26	Y26	Z26	X27	Y27	Z27	X28	Y28	Z28	X29	Y29	Z29	X30	Y30	Z30	X31	Y31	Z31	X32	Y32	Z32	X33	Y33	Z33	X34	Y34	Z34	X35	Y35	Z35	X36	Y36	Z36	X37	Y37	Z37	X38	Y38	Z38	X39	Y39	Z39	X40	Y40	Z40	X41	Y41	Z41	X42	Y42	Z42	X43	Y43	Z43	X44	Y44	Z44	X45	Y45	Z45	X46	Y46	Z46	X47	Y47	Z47	X48	Y48	Z48	X49	Y49	Z49	X50	Y50	Z50	

38	0.15468	-548.34	1511.2	489.27	-594.38	1517	86.815	-520.51	1828.6	295.08	-481.85	1464	291.21	-638.99	1552.9	299.95	-597.26	1081.4	144.26	-576.62	1105.8	481.19	-516.97	1014.6	179.24	-514.74	1007.1	449.97	-613.94	929.02	129.83	-634.86	936.93	494.01	-731.58	1021.7	353.87	-737.44	1018.1	267.81	-745.97	986.65	310.69	-480.11	546.34	176.65	-461.57	565.95	313.33	-698.19	529.1	486.18	-672.67	514.84	351.29	-435.53	110.19	211.32	-446.98	112.84	296.87	-1052.1	231.65	421.58	-997.23	224.17	329.85	-540.2	770.23	142.72	-477.06	784.15	168.68	-461.26	714.21	180.75	-516.73	697.39	155.54	-695.58	800.31	472.66	-638.14	796.05	499.93	-653.03	722.06	495.46	-702.09	726.67	469.29	-466.46	493.35	190.82	-419.4	531.33	203.14	-405.71	466.3	218.88	-450.5	433.38	196.38	-843.31	449.41	479.63	-803.16	407.61	483.68	-858.65	357.42	469.19	-898.24	395.93	462.31	-484.88	41.832	210.8	-508.78	69.072	240.02	-500.59	41.029	279.19	-1114.5	280.53	371.8	-1081.6	293.82	345.05	-1087	263.27	313.98	-290.22	53.032	334.55	-286.78	52.158	215.91	-231.75	86.972	300.1	-1001.9	69.87	327.13	-1059.8	86.655	433.26	-982.74	32.096	386.58
39	0.15886	-542.81	1512.2	488.72	-588.42	1517.9	86.296	-514.88	1829.4	294.36	-476.31	1464.9	290.78	-633.42	1553.8	299.36	-591.96	1082.4	143.94	-571.33	1106.5	480.9	-511.63	1015.6	178.76	-509.21	1008	449.44	-608.9	930.09	129.51	-628.6	937.22	493.61	-726.18	1022.2	353.7	-731.99	1019	267.67	-740.52	987.38	310.39	-477.14	546.54	175.97	-458.39	566.21	312.59	-687.11	528.54	486.59	-661.28	514.25	351.67	-435.1	110.14	211.25	-446.47	112.91	296.7	-1043.4	235.21	421.77	-988.52	226.71	330.19	-535.94	771.05	142.32	-472.57	784.53	168.17	-457.09	714.5	180.11	-512.77	698.01	154.96	-687.75	799.57	472.86	-630.2	795.99	499.92	-644.24	721.82	495.62	-693.48	725.84	469.67	-463.79	493.49	190.18	-416.49	531.21	202.43	-403.16	466.12	218.24	-448.17	433.43	195.82	-832.38	450.4	479.94	-792.69	408.15	484.01	-848.7	358.53	469.49	-887.87	397.46	462.53	-484.76	41.959	210.81	-508.61	69.27	240.02	-500.43	41.218	279.22	-1105.1	285.04	371.68	-1071.9	297.68	344.97	-1077.7	267.13	314.01	-289.95	52.487	334.37	-286.61	51.42	215.75	-231.34	86.095	299.86	-995.31	72.16	328.4	-1053.3	90.285	433.92	-977.19	33.154	387.91
40	0.16304	-537.35	1513.2	488.21	-582.5	1518.8	85.803	-509.23	1830.3	293.65	-470.8	1465.7	290.38	-627.88	1554.8	298.78	-586.66	1083.4	143.62	-566.09	1107.3	480.6	-506.31	1016.5	178.3	-503.73	1009	448.93	-603.87	931.14	129.18	-622.39	937.54	493.22	-720.81	1022.7	353.5	-726.57	1019.9	267.49	-735.12	988.11	310.04	-474.24	546.74	175.33	-455.3	566.45	311.91	-675.99	528.06	486.96	-649.87	513.79	351.99	-434.69	110.1	211.2	-445.98	112.98	296.54	-1034.5	238.7	421.93	-979.6	229.23	330.47	-531.69	771.83	141.94	-468.13	784.9	167.73	-452.98	714.78	179.55	-508.84	698.61	154.42	-679.91	798.87	473.02	-622.3	795.98	499.9	-635.45	721.63	495.76	-684.85	725.07	470	-461.17	493.63	189.6	-413.66	531.09	201.77	-400.69	465.94	217.64	-445.89	433.48	195.3	-821.34	451.41	480.21	-782.09	408.71	484.29	-838.6	359.65	469.74	-877.36	398.98	462.72	-484.65	42.088	210.82	-508.44	69.459	240.03	-500.28	41.401	279.26	-1095.6	289.28	371.54	-1062.1	301.32	344.84	-1068.3	270.72	314.02	-289.7	51.971	334.22	-286.44	50.732	215.62	-230.95	85.262	299.64	-988.25	74.458	329.68	-1046.3	93.89	434.67	-970.98	34.456	389.28
41	0.16722	-531.97	1514.1	487.74	-576.59	1519.8	85.335	-503.56	1831.2	292.95	-465.33	1466.5	290.01	-622.37	1555.8	298.23	-581.36	1084.3	143.29	-560.9	1108.1	480.3	-501.01	1017.3	177.87	-498.31	1010	448.46	-598.84	932.17	128.86	-616.23	937.87	492.84	-715.48	1023.1	353.26	-721.18	1020.9	267.28	-729.77	988.84	309.66	-471.39	546.94	174.75	-452.29	566.69	311.27	-664.84	527.67	487.29	-638.45	513.45	352.27	-434.29	110.07	211.17	-445.52	113.06	296.38	-1025.4	242.09	422.06	-970.5	231.72	330.7	-527.43	772.59	141.57	-463.72	785.27	167.34	-448.92	715.04	179.06	-504.96	699.21	153.93	-672.09	798.23	473.15	-614.43	796.03	499.86	-626.68	721.51	495.87	-676.22	724.36	470.28	-458.61	493.77	189.06	-410.88	530.97	201.17	-398.27	465.77	217.1	-443.66	433.54	194.83	-810.21	452.42	480.43	-771.38	409.31	484.52	-828.35	360.79	469.95	-866.73	400.5	462.9	-484.54	42.219	210.83	-508.27	69.639	240.05	-500.14	41.579	279.29	-1086	293.23	371.39	-1052.3	304.71	344.67	-1058.9	274.04	314.02	-289.47	51.481	334.09	-286.27	50.091	215.5	-230.59	84.471	299.46	-980.67	76.752	330.96	-1038.6	97.443	435.5	-964.09	35.988	390.67
42	0.1714	-526.67	1515.1	487.32	-570.72	1520.7	84.893	-497.89	1832	292.26	-459.89	1467.3	289.69	-616.89	1556.7	297.71	-576.05	1085.3	142.95	-555.76	1108.8	480	-495.73	1018.2	177.47	-492.95	1011	448.01	-593.81	933.18	128.55	-610.14	938.23	492.46	-710.19	1023.6	352.99	-715.82	1021.8	267.04	-724.47	989.55	309.24	-468.6	547.14	174.21	-449.34	566.91	310.68	-653.66	527.37	487.58	-627.03	513.25	352.49	-433.9	110.06	211.16	-445.09	113.14	296.24	-1016	245.36	422.15	-961.22	234.17	330.88	-523.16	773.32	141.2	-459.34	785.62	167.01	-444.92	715.29	178.63	-501.11	699.79	153.48	-664.27	797.64	473.24	-606.59	796.14	499.81	-617.93	721.44	495.96	-667.58	723.7	470.51	-456.1	493.91	188.57	-408.16	530.86	200.62	-395.89	465.61	216.6	-441.48	433.61	194.4	-798.99	453.46	480.62	-760.57	409.95	484.7	-817.97	361.94	470.12	-855.99	402	463.05	-484.44	42.353	210.85	-508.09	69.812	240.07	-500.01	41.752	279.33	-1076.4	296.87	371.22	-1042.4	307.85	344.47	-1049.3	277.07	314.01	-289.25	51.017	333.98	-286.11	49.494	215.41	-230.25	83.72	299.3	-972.58	79.029	332.24	-1030.3	100.92	436.42	-956.5	37.725	392.09
43	0.17559	-521.45	1516	486.93	-564.88	1521.6	84.478	-492.2	1832.9	291.59	-454.49	1468.1	289.4	-611.44	1557.7	297.2	-570.74	1086.2	142.61	-550.65	1109.6	479.7	-490.46	1019	177.09	-487.65	1012	447.58	-588.78	934.18	128.23	-604.09	938.62	492.1	-704.94	1024.1	352.7	-710.51	1022.7	266.77	-719.22	990.26	308.8	-465.85	547.34	173.72	-446.46	567.12	310.14	-642.46	527.16	487.82	-615.62	513.17	352.66	-433.52	110.05	211.16	-444.67	113.22	296.11	-1006.5	248.5	422.23	-951.75	236.57	331.01	-518.89	774.01	140.84	-454.99	785.97	166.71	-440.98	715.53	178.25	-497.29	700.37	153.07	-656.46	797.1	473.28	-598.79	796.31	499.75	-609.19	721.44	496.02	-658.94	723.11	470.69	-453.63	494.05	188.12	-405.48	530.75	200.11	-393.56	465.45	216.15	-439.33	433.68	194	-787.7	454.49	480.78	-749.66	410.62	484.84	-807.47	363.09	470.24	-845.15	403.49	463.19	-484.33	42.49	210.86	-507.92	69.979	240.1	-499.89	41.92	279.37	-1066.7	300.2	371.05	-1032.5	310.75	344.24	-1039.7	279.81	314.01	-289.04	50.576	333.89	-285.96	48.938	215.33	-229.93	83.005	299.17	-963.98	81.278	333.5	-1021.5	104.28	437.39	-948.23	39.64	393.51
44	0.17977	-516.3	1516.9	486.59	-559.08	1522.5	84.087	-486.51	1833.7	290.94	-449.12	1468.9	289.15	-606.02	1558.6	296.72	-565.44	1087.2	142.27	-545.6	1110.4	479.39	-485.23	1019.8	176.73	-482.4	1013.1	447.18	-583.75	935.16	127.92	-598.11	939.03	491.75	-699.72	1024.5	352.38	-705.24	1023.6	266.48	-714	990.96	308.34	-463.14	547.54	173.26	-443.62	567.33	309.63	-631.25	527.05	488.04	-604.23	513.23	352.8	-433.16	110.05	211.17	-444.28	113.3	295.99	-996.73	251.5	422.28	-942.11	238.91	331.1	-514.62	774.68	140.48	-450.67	786.31	166.46	-437.08	715.75	177.93	-493.5	700.94	152.69	-648.66	796.62	473.28	-591.02	796.53	499.68	-600.48	721.51	496.06	-650.29	722.58	470.8	-451.2	494.19	187.71	-402.84	530.64	199.65	-391.27	465.3	215.73	-437.21	433.76	193.63	-776.36	455.54	480.91	-738.67	411.33	484.94	-796.86	364.25	470.33	-834.22	404.96	463.32	-484.23	42.631	210.88	-507.75	70.14	240.14	-499.77	42.085	279.4	-1057	303.21	370.89	-1022.7	313.39	343.99	-1030.1	282.27	314.01	-288.84	50.156	333.81	-285.81	48.42	215.26	-229.63	82.325	299.05	-954.88	83.485	334.74	-1012	107.52	438.42	-939.29	41.7	394.92
45	0.18395	-511.23	1517.7	486.29	-553.3	1523.4	83.722	-480.81	1834.5	290.31	-443.79	1469.7	288.94	-600.62	1559.5	296.26	-560.14	1088	141.92	-540.58	1111.2	479.08	-480.01	1020.6	176.39	-477.21	1014.2	446.8	-578.73	936.12	127.62	-592.17	939.46	491.41	-694.54	1024.9	352.05	-700.01	1024.5	266.18	-708.82	991.65	307.86	-460.46	547.74	172.84	-440.83	567.53	309.16	-620.05	527.04	488.22	-592.87	513.41	352.89	-432.8	110.07	211.2	-443.9	113.39	295.87	-986.77	254.33	422.32	-932.29	241.17	331.15	-510.36	775.33	140.13	-446.37	786.65	166.23	-433.23	715.97	177.64	-489.73	701.5	152.34	-640.88	796.2	473.23	-583.28	796.81	499.6	-591.79	721.64	496.07	-641.65	722.11	470.87	-448.79	494.34	187.32	-400.24	530.54	199.22	-389	465.15	215.35	-435.12	433.85	193.29	-764.96	456.59	481.01	-727.61	412.07	485.01	-786.13	365.4	470.39	-823.22	406.4	463.43	-484.13	42.776	210.9	-507.57	70.298	240.18	-499.65	42.244	279.44	-1047.2	305.9	370.74	-1012.8	315.77	343.73	-1020.4	284.43	314.03	-288.65	49.757	333.75	-285.66	47.938	215.2	-229.34	81.677	298.95	-945.29	85.636	335.96	-1002.1	110.62	439.49	-929.7	43.872	396.32
46	0.18813	-506.22	1518.6	486.03	-547.56	1524.3	83.381	-475.11	1835.3	289.7	-438.48	1470.5	288.76	-595.25	1560.4	295.83	-554.85	1088.9	141.57	-535.61	1112	478.77	-474.83	1021.4	176.06	-472.06	1015.3	446.44	-573.71	937.07	127.33	-586.28	939.91	491.08	-689.38	1025.3	351.72	-694.82	1025.3	265.87	-703.68	992.33	307.37	-457.8	547.94	172.45	-438.07	567.72	308.72	-608.85	527.12	488.37	-581.54	513.71	352.95	-432.46	110.09	211.23	-443.54	113.49	295.76	-976.63	256.99	422.35	-922.3	243.35	331.17	-506.1	775.95	139.77	-442.09	786.98	166.02	-429.41	716.18	177.37	-486	702.05	152.01	-633.12	795.83	473.15	-575.56	797.15	499.5	-583.13	721.83	496.06	-633.02	721.71	470.87	-446.4	494.49	186.96	-397.67	530.44	198.83	-386.76	465.02	214.99	-433.05	433.94	192.98	-753.52	457.64	481.09	-716.47	412.83	485.05	-775.31	366.55	470.42	-812.14	407.81	463.53	-484.03	42.925	210.92	-507.4	70.453	240.23	-499.54	42.398	279.47	-1037.4	308.27	370.61	-1002.9	317.91	343.47	-1010.7	286.32	314.06	-288.47	49.376	333.7	-285.51	47.486	215.16	-229.06	81.056	298.87	-935.23	87.72	337.13	-991.64	113.54	440.59	-919.5	46.121	397.68
47	0.19231	-501.29	1519.4	485.8	-541.86	1525.1	83.065	-469.4	1836.1	289.11	-433.21	1471.3	288.62	-589.91	1561.3	295.42	-549.57	1089.8	141.23	-530.67	1112.9	478.45	-469.67	1022.1	175.75	-466.97	1016.4	446.09	-568.71	937.99	127.05	-580.43	940.39	490.76	-684.25	1025.7	351.38	-689.67	1026.2	265.56	-698.56	992.99	306.89	-455.17	548.15	172.08	-435.34	567.91	308.3	-597.66	527.3	488.5	-570.25	514.13	352.97	-432.12	110.12	211.27	-443.19	113.59	295.66	-966.3	259.46	422.37	-912.14	245.43	331.16	-501.84	776.54	139.41	-437.85	787.29	165.83	-425.63	716.37	177.13	-482.28	702.6	151.71	-625.38	795.52	473.03	-567.88	797.55	499.39	-574.5	722.09	496.02	-624.39	721.38	470.83	-444.04	494.64	186.63	-395.11	530.35	198.46	-384.54	464.88	214.65	-431	434.04	192.69	-742.06	458.68	481.14	-705.28	413.62	485.06	-764.4	367.68	470.43	-801	409.19	463.62	-483.93	43.078	210.94	-507.23	70.608	240.29	-499.43	42.547	279.5	-1027.5	310.32	370.5	-992.96	319.78	343.21	-1000.9	287.92	314.11	-288.29	49.012	333.65	-285.36	47.063	215.12	-228.8	80.462	298.79	-924.73	89.724	338.27	-980.71	116.28	441.71	-908.72	48.413	399.01
